PathFileType	4	(X/Y/Z)	C:\Users\WrightLab\Desktop\Jo\P1_boxCal32.trc
DataRate	CameraRate	NumFrames	NumMarkers	Units	OrigDataRate	OrigDataStartFrame	OrigNumFrames
100.00	100.00	       22	19	mm	100.00	185	       737
Frame#	Time	Headset_Front			Headset_Back			Headset_Left			Headset_Right			Left_Shoulder			Right_Shoulder			Sternum			C7			Left Elbow			Right Elbow			Left Wrist			Right Wrist			Left ASIS			Right ASIS			S2			Left Knee			Right Knee			Left Ankle			Right Ankle			
		X1	Y1	Z1	X2	Y2	Z2	X3	Y3	Z3	X4	Y4	Z4	X5	Y5	Z5	X6	Y6	Z6	X7	Y7	Z7	X8	Y8	Z8	X9	Y9	Z9	X10	Y10	Z10	X11	Y11	Z11	X12	Y12	Z12	X13	Y13	Z13	X14	Y14	Z14	X15	Y15	Z15	X16	Y16	Z16	X17	Y17	Z17	X18	Y18	Z18	X19	Y19	Z19	

185	1.840							-1008.93713	1453.39551	1328.61255				-1127.83740	1307.41614	1470.09131	-745.34033	1287.20251	1463.59863																-610.66589	796.87836	1573.25330	-587.41870	934.94971	1345.74524	-840.36926	896.86267	1367.08032				-1098.88330	478.25342	1547.12842	-800.01086	518.44116	1349.91467							
186	1.850							-1009.86786	1452.85803	1323.39624				-1128.69019	1306.59875	1463.21643	-745.71136	1286.98010	1459.82019																-611.28400	797.38025	1571.11780	-587.17920	933.97900	1339.43738	-839.81421	895.69086	1363.31689				-1098.62292	477.36075	1543.21521	-801.05145	517.22424	1346.03064							
187	1.860							-1010.32281	1452.03040	1318.06104				-1129.19104	1305.39685	1456.26685	-746.39844	1287.22095	1454.61548																-611.96521	797.42767	1568.54736	-588.31885	933.47003	1333.02490	-838.93738	895.11066	1357.58203				-1098.81848	476.91440	1539.33057	-801.87555	517.47559	1341.57104							
188	1.870							-1011.86078	1451.79456	1312.47644				-1129.95105	1304.36194	1449.28638	-747.04315	1286.96167	1448.31604																-611.91321	797.04736	1566.14539	-587.76691	931.96295	1326.27588	-838.51764	893.95166	1352.76697				-1098.91943	476.03513	1535.01147	-802.84314	516.93823	1337.17261							
189	1.880							-1011.62048	1450.67224	1306.64026				-1130.59778	1303.26160	1442.19885	-747.35620	1286.56018	1442.93237																-612.04205	797.61053	1562.45300	-588.85382	931.65619	1319.61060	-838.67108	893.43018	1348.15320				-1099.16077	475.34381	1531.44336	-803.27478	516.09222	1332.61584							
190	1.890				-943.50977	1538.74048	1426.89600	-1013.64246	1450.71228	1300.82434				-1130.80054	1301.97351	1435.02368	-747.81067	1286.32837	1436.05054																-612.29889	798.15820	1560.00525	-588.67786	930.40210	1312.54456	-837.85547	891.71985	1343.21594				-1099.43652	474.72156	1527.45947	-803.18506	514.77600	1328.55457							
191	1.900				-944.43134	1537.98193	1420.88257	-1013.48608	1449.55542	1294.71423				-1131.21716	1300.69739	1427.69556	-748.14716	1285.33435	1430.72461																-611.44598	798.44482	1556.61841	-588.23804	928.79590	1305.41077	-838.57001	890.73297	1338.57312				-1099.58118	473.73450	1523.77625	-802.83948	513.11493	1324.51318							
192	1.910				-944.24713	1536.69885	1414.66443	-1013.79907	1448.54260	1288.40918				-1131.60889	1299.52893	1420.48767	-748.43164	1284.49207	1425.56726																-610.68683	798.12213	1552.95862	-588.85339	928.06641	1298.02930	-838.40308	889.26617	1333.14136				-1100.13367	473.24078	1520.18652	-802.80505	512.14929	1319.81384							
193	1.920				-945.31665	1535.92139	1408.30896	-1014.62036	1447.69397	1282.04089				-1131.81079	1298.01050	1413.21094	-748.91266	1283.18848	1418.52441																-610.05780	798.59192	1549.02332	-587.73798	926.24774	1290.47766	-838.22540	888.40619	1326.53650				-1100.71338	472.21820	1516.51843	-801.80933	510.20654	1315.77588							
194	1.930				-944.89618	1534.45313	1401.80054	-1012.22681	1445.72217	1275.32043				-1132.02539	1296.54626	1405.86548	-748.69519	1282.60132	1412.43652																-609.53320	797.64624	1544.03638	-587.86243	924.91864	1282.73071	-838.02496	887.21735	1321.35461				-1101.26135	471.40057	1512.31909	-801.02472	508.64468	1310.56775							
195	1.940				-944.78412	1533.14258	1395.07434	-1012.29706	1444.51355	1268.72693				-1132.00024	1294.98389	1398.54187	-748.18677	1281.52332	1407.23108																-608.58014	797.99231	1539.63403	-587.11328	922.94934	1274.66931	-838.10413	885.04950	1313.92664				-1101.83655	470.57831	1508.58130	-799.35931	507.49603	1305.72900							
196	1.950				-945.26581	1532.10071	1388.27917	-1012.21423	1443.15100	1261.90662				-1132.03137	1293.39587	1391.06177	-748.71021	1280.49133	1398.57166																-606.67877	796.46906	1534.06775	-586.40265	921.21063	1266.52893	-838.25940	883.72742	1308.49121				-1102.31836	469.46497	1504.88879	-797.24622	505.91965	1299.44714							
197	1.960				-944.28510	1530.42944	1381.36121	-1011.92499	1441.95410	1254.94592				-1132.10583	1292.07288	1383.53003	-748.61121	1279.18958	1392.02344																-605.24347	797.00635	1528.78052	-586.62604	920.01123	1258.27441	-838.60876	882.43646	1300.68628				-1102.99426	468.51541	1501.03003	-795.82538	504.30118	1294.62708							
198	1.970				-943.85754	1529.15906	1374.34546	-1011.41644	1440.64819	1247.88916				-1131.96179	1290.42493	1375.89404	-748.58893	1277.85156	1385.59119																-604.07306	796.14807	1523.75647	-584.86975	917.37781	1249.60376	-837.80511	880.50842	1293.97168				-1103.68896	467.25836	1497.13452	-793.85461	502.75131	1288.31592							
199	1.980				-943.92291	1528.16431	1367.22607	-1010.98969	1439.52087	1240.66077				-1131.62952	1288.81592	1368.21155	-748.26746	1276.11121	1379.38074																-602.26093	796.17517	1518.06995	-584.78766	915.77362	1240.89954	-838.14185	879.06866	1286.38403				-1104.39893	466.37997	1493.10901	-792.40186	500.70010	1283.45190							
200	1.990				-943.15375	1526.88953	1359.98169	-1010.53412	1438.32324	1233.32837				-1131.38208	1287.39380	1360.44153	-747.88635	1275.02014	1372.25903																-602.13721	794.88837	1510.67334	-583.52649	913.64362	1231.90015	-838.48944	876.97900	1279.52136				-1104.88281	465.07468	1488.76880	-790.86652	498.94165	1276.46802							
201	2.000				-942.16705	1525.60449	1352.70532	-1009.62653	1437.14697	1225.94458				-1130.88281	1285.85657	1352.59705	-747.30554	1273.63074	1363.74255				-953.42944	1308.50513	1467.52539										-600.72003	793.86920	1504.53101	-582.94977	912.02490	1222.86560	-837.71179	875.71033	1270.32886				-1105.12366	464.46463	1484.37561	-789.25464	497.13803	1269.22131							
202	2.010				-941.44452	1524.45630	1345.23706	-1008.50641	1435.80994	1218.42224				-1130.26428	1284.49829	1344.60828	-746.69165	1270.93164	1359.87207				-952.56329	1306.67737	1459.93103	-1039.99084	875.57983	1268.40076							-600.27966	793.06329	1497.55737	-582.14911	910.33923	1213.67261	-837.67029	873.94006	1262.85583				-1105.10522	463.23026	1479.89014	-787.82959	495.47491	1261.53308							
203	2.020	-783.67633	1405.29883	1221.82141	-940.78143	1523.34448	1337.77539	-1007.30408	1434.73511	1210.81042				-1129.54492	1283.20557	1336.44446	-745.67371	1269.88867	1352.87769				-951.89081	1304.94629	1452.14856	-1037.58215	874.63696	1257.16052							-597.75568	791.72809	1490.06702	-580.42059	907.91351	1204.15723	-837.48694	872.37799	1252.17053				-1104.98889	462.56509	1475.27563	-786.87976	493.49335	1254.25598							
204	2.030	-782.52509	1403.93201	1215.15784	-940.00226	1522.19385	1330.18372	-1006.15863	1433.81799	1203.06189				-1128.76404	1281.91418	1328.27515	-745.21436	1269.16541	1341.62390				-951.61993	1303.60327	1444.21338	-1035.27625	874.11884	1247.40918	-680.38922	1028.11731	1482.08057				-596.59827	790.28003	1483.21362	-579.67621	906.32996	1194.60352	-837.12714	871.58862	1243.99731	-938.80676	920.31750	1555.87097	-1104.52808	461.80453	1470.42188	-785.83862	491.53845	1246.47900							
205	2.040	-781.34656	1402.92920	1207.16968	-938.25946	1520.63843	1322.60718	-1004.87891	1432.85352	1195.07373				-1127.80823	1280.78918	1319.89746	-744.19867	1267.67944	1334.99768				-950.60602	1302.05310	1436.18567				-680.86578	1026.06055	1473.74927	-1145.44043	821.49609	1332.61865	-595.96936	789.05902	1474.14417	-577.74530	904.44916	1184.76538	-836.60376	869.89349	1235.33044	-937.97546	918.55627	1547.54053	-1103.88538	461.29700	1464.98511	-784.15045	489.63519	1236.97522							
206	2.050	-779.96301	1401.86597	1199.65479	-936.92749	1519.47290	1314.92810	-1003.68536	1432.00134	1187.34204				-1126.63013	1279.71619	1311.38208	-743.06097	1266.42542	1327.26697				-949.34961	1300.40625	1427.95215				-680.44147	1024.03845	1466.06824	-1142.84753	821.14777	1321.68970	-594.13708	787.63538	1466.86890				-835.53949	869.25751	1225.95544	-935.75507	917.78955	1540.01965	-1103.00745	460.43439	1460.27783	-783.30066	488.44006	1227.21240							
